<svg xmlns="http://www.w3.org/2000/svg"  viewBox="0 0 64 64" width="64px" height="64px"><linearGradient id="ME2Mf34g0lxX3Apvpd0~pa" x1="34.5" x2="34.5" y1="28.276" y2="22.276" gradientTransform="matrix(1 0 0 -1 0 65.276)" gradientUnits="userSpaceOnUse"><stop offset="0" stop-color="#6dc7ff"/><stop offset="1" stop-color="#e6abff"/></linearGradient><polygon fill="url(#ME2Mf34g0lxX3Apvpd0~pa)" points="35,38 35,38.333 33,37 33,43 36,39 36,38"/><linearGradient id="ME2Mf34g0lxX3Apvpd0~pb" x1="45" x2="45" y1="44.276" y2="6.276" gradientTransform="matrix(1 0 0 -1 0 65.276)" gradientUnits="userSpaceOnUse"><stop offset="0" stop-color="#6dc7ff"/><stop offset="1" stop-color="#e6abff"/></linearGradient><polygon fill="url(#ME2Mf34g0lxX3Apvpd0~pb)" points="61,21 59,25 53,28 47.25,28 57,25 45,25 44,28 43,28 42,30 43,30 44,29 45.995,28.386 49.168,29 51,29 41,34 26,59 29,58 32,53 35,52 43,37 62,28 64,22 63,22 63,21"/><linearGradient id="ME2Mf34g0lxX3Apvpd0~pc" x1="43.5" x2="43.5" y1="44.276" y2="6.276" gradientTransform="matrix(1 0 0 -1 0 65.276)" gradientUnits="userSpaceOnUse"><stop offset="0" stop-color="#1a6dff"/><stop offset="1" stop-color="#c822ff"/></linearGradient><polygon fill="url(#ME2Mf34g0lxX3Apvpd0~pc)" points="60,21 57,22 42,22 36,36 33,37 34,39 35,39 35,38 36,38 36,39 35,39 35,40 33.45,40 25,59 27,58 31,52 34,51 42,36 57,29 49.168,29 45.995,28.386 44,29 43,30 42,30 43,28 44,28 45,25 57,25 47.25,28 58,28 60,27 62,21"/><linearGradient id="ME2Mf34g0lxX3Apvpd0~pd" x1="26.5" x2="26.5" y1="53.276" y2="27.276" gradientTransform="matrix(1 0 0 -1 0 65.276)" gradientUnits="userSpaceOnUse"><stop offset="0" stop-color="#6dc7ff"/><stop offset="1" stop-color="#e6abff"/></linearGradient><path fill="url(#ME2Mf34g0lxX3Apvpd0~pd)" d="M33,31l1,1h2v2l-5,3H12l-7,1l-4-4h2l29-1L33,31z M52,14l-4,2c-1.955,0-4-2-9,2L18.933,31H25	l5,1H17.467L16,33l-4-1v-1h-1v-1h3v0.615L45,12l4,1L52,14z M13,31.308L13.444,31H13V31.308z M15,25L3.585,31.415	C4.519,31.801,5.52,32,6.531,32H11v-1H6.316L15,25z"/><g><linearGradient id="ME2Mf34g0lxX3Apvpd0~pe" x1="26" x2="26" y1="56.276" y2="28.276" gradientTransform="matrix(1 0 0 -1 0 65.276)" gradientUnits="userSpaceOnUse"><stop offset="0" stop-color="#1a6dff"/><stop offset="1" stop-color="#c822ff"/></linearGradient><path fill="url(#ME2Mf34g0lxX3Apvpd0~pe)" d="M46,9l-2,1h-2L15,25l-8.684,6H11v-1h3v1h1v1h-1v-1h-1v1h-1v-1h-1v1H6.531 c-1.011,0-2.012-0.199-2.946-0.585l0.033-0.02C3.065,31.382,2.512,31.256,2,31l-2,1l5,5l7-1h18l4-3v-2h-2l-2-1 c-2,1-4.092,0.869-5,1l5,1H16v-1l27-17l4,1l5-3L46,9z"/></g></svg>